<svg width="30" height="31" viewBox="0 0 30 31" fill="none" xmlns="http://www.w3.org/2000/svg">
<path d="M9.1748 11.4365C9.1748 10.3911 9.97986 9.5221 11.0222 9.44233L14.6811 9.16231C14.7827 9.15454 14.8848 9.15454 14.9863 9.16231L18.6453 9.44233C19.6876 9.5221 20.4927 10.3911 20.4927 11.4365V18.991C20.4927 20.0364 19.6876 20.9054 18.6453 20.9852L14.9863 21.2652C14.8848 21.273 14.7827 21.273 14.6811 21.2652L11.0222 20.9852C9.97986 20.9054 9.1748 20.0364 9.1748 18.991V11.4365Z" fill="#F8A644"/>
<path fill-rule="evenodd" clip-rule="evenodd" d="M14.9767 8.90576C13.1812 8.90576 12.9565 8.9129 12.2514 8.94432C11.5477 8.97573 11.067 9.08425 10.6465 9.24311C10.2054 9.40444 9.80585 9.65736 9.47567 9.98421C9.13949 10.3052 8.87931 10.6936 8.71326 11.1223C8.54984 11.531 8.43782 11.9983 8.40587 12.6826C8.37392 13.3677 8.36621 13.5858 8.36621 15.3315C8.36621 17.0771 8.37356 17.2952 8.40587 17.9806C8.43819 18.6646 8.54984 19.1319 8.71326 19.5407C8.87924 19.9694 9.13942 20.3578 9.47567 20.6787C9.84292 21.0357 10.212 21.2556 10.6465 21.4198C11.067 21.5787 11.5477 21.6875 12.2514 21.7186C12.9565 21.7497 13.1812 21.7572 14.9767 21.7572C16.7722 21.7572 16.997 21.75 17.7021 21.7186C18.4057 21.6872 18.8865 21.5787 19.307 21.4198C19.748 21.2585 20.1476 21.0056 20.4778 20.6787C20.845 20.3217 21.0712 19.963 21.2402 19.5407C21.4036 19.1319 21.5156 18.6646 21.5476 17.9806C21.5795 17.2952 21.5872 17.0768 21.5872 15.3315C21.5872 13.5862 21.5799 13.3677 21.5476 12.6823C21.5152 11.9983 21.4036 11.531 21.2402 11.1223C21.0742 10.6935 20.814 10.3052 20.4778 9.98421C20.1475 9.65742 19.748 9.40452 19.307 9.24311C18.8865 9.08425 18.4057 8.97537 17.7017 8.94432C16.997 8.91326 16.7726 8.90576 14.9767 8.90576ZM14.9767 10.0635C16.7417 10.0635 16.9511 10.0702 17.6481 10.1009C18.2926 10.1295 18.6426 10.2341 18.8754 10.3223C19.1839 10.4386 19.4043 10.5782 19.6357 10.8028C19.867 11.0277 20.0102 11.2419 20.13 11.5417C20.2207 11.7681 20.3283 12.1083 20.3577 12.7348C20.3893 13.4123 20.3962 13.6158 20.3962 15.3315C20.3962 17.0471 20.3893 17.2506 20.3577 17.9282C20.3283 18.5547 20.2207 18.8949 20.13 19.1212C20.0241 19.4003 19.8552 19.6528 19.6357 19.8602C19.4043 20.0851 19.1839 20.2243 18.8754 20.3407C18.6426 20.4288 18.2926 20.5334 17.6481 20.562C16.9511 20.5927 16.7421 20.5995 14.9767 20.5995C13.2113 20.5995 13.0024 20.5927 12.3053 20.562C11.6608 20.5334 11.3108 20.4288 11.078 20.3407C10.7908 20.2377 10.5311 20.0735 10.3178 19.8602C10.0983 19.6528 9.92936 19.4003 9.82346 19.1212C9.73275 18.8949 9.62514 18.5547 9.59576 17.9282C9.56418 17.2506 9.5572 17.0471 9.5572 15.3315C9.5572 13.6158 9.56418 13.4123 9.59576 12.7348C9.62514 12.1083 9.73275 11.7681 9.82346 11.5417C9.94318 11.2419 10.0868 11.0277 10.3178 10.8028C10.5491 10.5779 10.7695 10.4386 11.078 10.3223C11.3108 10.2341 11.6608 10.1295 12.3053 10.1009C13.0024 10.0702 13.2117 10.0635 14.9767 10.0635Z" fill="#F8A644"/>
<path fill-rule="evenodd" clip-rule="evenodd" d="M14.9749 17.4746C14.6853 17.4746 14.3985 17.4192 14.1308 17.3114C13.8632 17.2037 13.6201 17.0458 13.4153 16.8467C13.2104 16.6476 13.048 16.4112 12.9371 16.1511C12.8263 15.8909 12.7692 15.6121 12.7692 15.3306C12.7692 15.049 12.8263 14.7702 12.9371 14.5101C13.048 14.2499 13.2104 14.0136 13.4153 13.8145C13.6201 13.6154 13.8632 13.4575 14.1308 13.3497C14.3985 13.242 14.6853 13.1865 14.9749 13.1865C15.5599 13.1865 16.1209 13.4124 16.5346 13.8145C16.9482 14.2166 17.1806 14.7619 17.1806 15.3306C17.1806 15.8992 16.9482 16.4446 16.5346 16.8467C16.1209 17.2488 15.5599 17.4746 14.9749 17.4746ZM14.9749 12.0277C14.0738 12.0277 13.2095 12.3757 12.5723 12.9951C11.9351 13.6145 11.5771 14.4546 11.5771 15.3306C11.5771 16.2065 11.9351 17.0466 12.5723 17.666C13.2095 18.2855 14.0738 18.6334 14.9749 18.6334C15.8761 18.6334 16.7403 18.2855 17.3775 17.666C18.0147 17.0466 18.3727 16.2065 18.3727 15.3306C18.3727 14.4546 18.0147 13.6145 17.3775 12.9951C16.7403 12.3757 15.8761 12.0277 14.9749 12.0277ZM19.3613 11.9677C19.3613 12.1748 19.2767 12.3734 19.1261 12.5198C18.9755 12.6662 18.7712 12.7485 18.5582 12.7485C18.3451 12.7485 18.1409 12.6662 17.9902 12.5198C17.8396 12.3734 17.755 12.1748 17.755 11.9677C17.755 11.7607 17.8396 11.5621 17.9902 11.4157C18.1409 11.2693 18.3451 11.187 18.5582 11.187C18.7712 11.187 18.9755 11.2693 19.1261 11.4157C19.2767 11.5621 19.3613 11.7607 19.3613 11.9677Z" fill="#464447"/>
<circle cx="14.9762" cy="15.3312" r="13.945" stroke="#F8A644" stroke-width="2"/>
</svg>
