<svg width="31" height="31" viewBox="0 0 31 31" fill="none" xmlns="http://www.w3.org/2000/svg">
<circle cx="15.8649" cy="15.3312" r="13.945" stroke="#F8A644" stroke-width="2"/>
<path d="M24.3518 19.1048C24.331 19.0619 24.3116 19.0264 24.2936 18.998C23.996 18.4852 23.4272 17.8558 22.5876 17.1096L22.5698 17.0925L22.561 17.0842L22.552 17.0756H22.543C22.1619 16.7281 21.9206 16.4945 21.8196 16.3749C21.6347 16.147 21.5932 15.9164 21.6943 15.6827C21.7657 15.5061 22.0339 15.1333 22.4982 14.5636C22.7424 14.2617 22.9359 14.0197 23.0787 13.8374C24.109 12.5273 24.5557 11.6901 24.4186 11.3255L24.3654 11.2403C24.3296 11.189 24.2374 11.1421 24.0887 11.0993C23.9396 11.0566 23.7491 11.0495 23.5168 11.078L20.9444 11.095C20.9027 11.0809 20.8432 11.0822 20.7657 11.0993C20.6883 11.1164 20.6495 11.125 20.6495 11.125L20.6048 11.1464L20.5692 11.1721C20.5394 11.1891 20.5067 11.219 20.4709 11.2617C20.4354 11.3043 20.4056 11.3543 20.3818 11.4112C20.1018 12.1004 19.7833 12.7412 19.426 13.3336C19.2056 13.6868 19.0033 13.9929 18.8185 14.2521C18.6339 14.5112 18.4791 14.702 18.3541 14.8244C18.229 14.9469 18.1161 15.045 18.0146 15.1191C17.9134 15.1933 17.836 15.2246 17.7825 15.2132C17.7289 15.2017 17.6783 15.1903 17.6305 15.179C17.5472 15.1277 17.4802 15.0579 17.4296 14.9696C17.3789 14.8814 17.3447 14.7702 17.3269 14.6364C17.3091 14.5024 17.2986 14.3872 17.2956 14.2904C17.2928 14.1936 17.2941 14.0568 17.3001 13.8802C17.3063 13.7036 17.3091 13.584 17.3091 13.5214C17.3091 13.3049 17.3135 13.07 17.3224 12.8165C17.3314 12.563 17.3387 12.3622 17.3448 12.2142C17.3508 12.0661 17.3537 11.9095 17.3537 11.7443C17.3537 11.5791 17.3431 11.4495 17.3224 11.3555C17.3018 11.2616 17.2703 11.1705 17.2288 11.0821C17.1871 10.9938 17.1259 10.9255 17.0457 10.877C16.9653 10.8286 16.8654 10.7902 16.7465 10.7617C16.4309 10.6933 16.0289 10.6564 15.5405 10.6506C14.433 10.6393 13.7214 10.7077 13.4058 10.8558C13.2807 10.9183 13.1675 11.0038 13.0664 11.112C12.9592 11.2373 12.9442 11.3058 13.0216 11.317C13.3789 11.3682 13.6319 11.4907 13.7808 11.6843L13.8345 11.7869C13.8762 11.861 13.9179 11.9921 13.9596 12.18C14.0012 12.3679 14.0281 12.5758 14.0399 12.8035C14.0696 13.2194 14.0696 13.5754 14.0399 13.8715C14.0101 14.1678 13.9819 14.3984 13.9551 14.5636C13.9282 14.7288 13.888 14.8627 13.8345 14.9651C13.7808 15.0677 13.7451 15.1303 13.7272 15.1531C13.7093 15.1758 13.6945 15.1902 13.6826 15.1958C13.6052 15.2242 13.5247 15.2386 13.4414 15.2386C13.358 15.2386 13.2568 15.1987 13.1377 15.1189C13.0187 15.0391 12.8951 14.9295 12.7671 14.79C12.639 14.6504 12.4946 14.4553 12.3338 14.2047C12.1731 13.9541 12.0063 13.6579 11.8336 13.3162L11.6907 13.0683C11.6014 12.9089 11.4794 12.6767 11.3246 12.3721C11.1697 12.0673 11.0327 11.7725 10.9137 11.4877C10.8661 11.3681 10.7946 11.277 10.6993 11.2143L10.6546 11.1886C10.6249 11.1659 10.5772 11.1417 10.5118 11.116C10.4462 11.0903 10.3778 11.0719 10.3063 11.0605L7.85888 11.0775C7.60879 11.0775 7.43909 11.1317 7.34974 11.2399L7.31398 11.2911C7.29612 11.3197 7.28711 11.3652 7.28711 11.4279C7.28711 11.4906 7.30497 11.5675 7.34073 11.6585C7.69801 12.4617 8.08655 13.2363 8.50633 13.9825C8.92612 14.7287 9.29091 15.3297 9.60048 15.7851C9.91011 16.2408 10.2257 16.6709 10.5473 17.0752C10.8689 17.4797 11.0817 17.7389 11.1859 17.8527C11.2902 17.9668 11.3721 18.0521 11.4316 18.109L11.655 18.314C11.7979 18.4508 12.0077 18.6145 12.2846 18.8053C12.5616 18.9962 12.8682 19.1841 13.2047 19.3694C13.5412 19.5544 13.9327 19.7053 14.3793 19.822C14.8259 19.9389 15.2606 19.9858 15.6834 19.9632H16.7106C16.919 19.946 17.0768 19.8833 17.1841 19.7751L17.2196 19.7323C17.2435 19.6983 17.2659 19.6455 17.2865 19.5744C17.3074 19.5032 17.3178 19.4248 17.3178 19.3395C17.3117 19.0946 17.3312 18.8739 17.3758 18.6774C17.4203 18.481 17.471 18.3329 17.5278 18.2332C17.5845 18.1335 17.6485 18.0494 17.7198 17.9812C17.7912 17.9129 17.842 17.8715 17.8719 17.8573C17.9015 17.843 17.9252 17.8332 17.9431 17.8274C18.086 17.7819 18.2542 17.826 18.4479 17.9599C18.6415 18.0938 18.823 18.2591 18.9928 18.4555C19.1625 18.6521 19.3665 18.8727 19.6046 19.1176C19.8429 19.3625 20.0513 19.5446 20.2298 19.6644L20.4084 19.7669C20.5277 19.8354 20.6825 19.898 20.8731 19.955C21.0634 20.0119 21.23 20.0261 21.3732 19.9977L23.6597 19.9635C23.8859 19.9635 24.0619 19.9277 24.1867 19.8567C24.3118 19.7855 24.3861 19.707 24.41 19.6217C24.434 19.5363 24.4352 19.4394 24.4146 19.3311C24.3934 19.223 24.3725 19.1475 24.3518 19.1048Z" fill="#F8A644"/>
</svg>
