<svg width="51" height="57" viewBox="0 0 51 57" fill="none" xmlns="http://www.w3.org/2000/svg">
<path d="M28.9886 27.7689C28.9886 35.0458 23.0895 40.9448 15.8127 40.9448C8.53579 40.9448 2.63672 35.0458 2.63672 27.7689C2.63672 23.7889 4.97179 20.6477 7.95032 17.1311C11.7108 12.6913 13.0454 8.49756 13.7948 5.27385C13.9093 4.7811 14.1843 4.49562 14.4079 4.37759C14.5935 4.27962 14.8049 4.25226 15.0908 4.41218C21.7405 8.13216 28.9886 16.7987 28.9886 27.7689Z" stroke="#DF6D4A" stroke-width="4.5" stroke-linecap="round" stroke-linejoin="round"/>
<path d="M48.5434 45.454C48.5434 50.3422 44.5808 54.3048 39.6926 54.3048C34.8044 54.3048 30.8418 50.3422 30.8418 45.454C30.8418 42.8478 32.3615 40.7504 34.5161 38.2065C36.8524 35.4482 37.9339 32.8077 38.5512 30.6019C38.705 30.0523 39.0121 29.7553 39.215 29.6505C39.3086 29.6022 39.3768 29.5934 39.4246 29.5954C39.4677 29.5972 39.5621 29.6099 39.7121 29.7068C44.119 32.5504 48.5434 38.319 48.5434 45.454Z" stroke="#DF6D4A" stroke-width="4.5" stroke-linecap="round" stroke-linejoin="round"/>
</svg>
