<svg width="51" height="79" viewBox="0 0 51 79" fill="none" xmlns="http://www.w3.org/2000/svg">
<path d="M22.9883 23.7397C25.9714 26.2408 26.3622 30.6866 23.8611 33.6698C21.36 36.6529 16.9142 37.0436 13.9311 34.5425C12.9004 33.6784 11.8629 31.9668 10.9404 29.6201C10.0454 27.3431 9.36574 24.7501 8.89583 22.4305C8.72683 21.5963 9.33277 20.8736 10.1837 20.8945C12.5497 20.9525 15.2214 21.1695 17.6197 21.6536C20.0913 22.1525 21.9577 22.8756 22.9883 23.7397Z" stroke="#DF6D4A" stroke-width="4.5"/>
<path d="M22.9883 38.4088C25.9714 40.9099 26.3622 45.3557 23.8611 48.3388C21.36 51.3219 16.9142 51.7126 13.9311 49.2116C12.9004 48.3475 11.8629 46.6358 10.9404 44.2891C10.0454 42.0121 9.36574 39.4192 8.89583 37.0996C8.72683 36.2653 9.33277 35.5426 10.1837 35.5635C12.5497 35.6216 15.2214 35.8385 17.6197 36.3227C20.0913 36.8216 21.9577 37.5447 22.9883 38.4088Z" stroke="#DF6D4A" stroke-width="4.5"/>
<path d="M22.9883 52.8665C25.9714 55.3676 26.3622 59.8134 23.8611 62.7966C21.36 65.7797 16.9142 66.1704 13.9311 63.6693C12.9004 62.8052 11.8629 61.0936 10.9404 58.7469C10.0454 56.4699 9.36574 53.8769 8.89583 51.5573C8.72683 50.7231 9.33277 50.0004 10.1837 50.0213C12.5497 50.0793 15.2214 50.2963 17.6197 50.7804C20.0913 51.2793 21.9577 52.0024 22.9883 52.8665Z" stroke="#DF6D4A" stroke-width="4.5"/>
<path d="M28.0009 23.7397C25.0178 26.2408 24.6271 30.6866 27.1282 33.6698C29.6293 36.6529 34.0751 37.0436 37.0582 34.5425C38.0888 33.6784 39.1264 31.9668 40.0488 29.6201C40.9438 27.3431 41.6235 24.7501 42.0934 22.4305C42.2624 21.5963 41.6565 20.8736 40.8056 20.8945C38.4396 20.9525 35.7678 21.1695 33.3696 21.6536C30.8979 22.1525 29.0316 22.8756 28.0009 23.7397Z" stroke="#DF6D4A" stroke-width="4.5"/>
<path d="M28.0009 38.4088C25.0178 40.9099 24.6271 45.3557 27.1282 48.3388C29.6293 51.3219 34.0751 51.7126 37.0582 49.2116C38.0888 48.3475 39.1264 46.6358 40.0488 44.2891C40.9438 42.0121 41.6235 39.4192 42.0934 37.0996C42.2624 36.2653 41.6565 35.5426 40.8056 35.5635C38.4396 35.6216 35.7678 35.8385 33.3696 36.3227C30.8979 36.8216 29.0316 37.5447 28.0009 38.4088Z" stroke="#DF6D4A" stroke-width="4.5"/>
<path d="M28.0009 52.8665C25.0178 55.3676 24.6271 59.8134 27.1282 62.7966C29.6293 65.7797 34.0751 66.1704 37.0582 63.6693C38.0888 62.8052 39.1264 61.0936 40.0488 58.7469C40.9438 56.4699 41.6235 53.8769 42.0934 51.5573C42.2624 50.7231 41.6565 50.0004 40.8056 50.0213C38.4396 50.0793 35.7678 50.2963 33.3696 50.7804C30.8979 51.2793 29.0316 52.0024 28.0009 52.8665Z" stroke="#DF6D4A" stroke-width="4.5"/>
<path d="M32.5534 16.9507C32.5534 20.8435 29.3976 23.9993 25.5047 23.9993C21.6118 23.9993 18.4561 20.8435 18.4561 16.9507C18.4561 15.6057 19.1011 13.7109 20.3067 11.4964C21.4766 9.34757 23.0268 7.16082 24.5025 5.31042C25.0331 4.64494 25.9763 4.64494 26.507 5.31042C27.9826 7.16082 29.5329 9.34757 30.7027 11.4964C31.9084 13.7109 32.5534 15.6057 32.5534 16.9507Z" stroke="#DF6D4A" stroke-width="4.5"/>
<path d="M25.4951 76.6798L25.4951 24.8131" stroke="#DF6D4A" stroke-width="4.5" stroke-linecap="round"/>
<path d="M12.5342 20.8906L12.5342 7.8313" stroke="#DF6D4A" stroke-width="4.5" stroke-linecap="round"/>
<path d="M38.4561 20.8906L38.4561 7.8313" stroke="#DF6D4A" stroke-width="4.5" stroke-linecap="round"/>
</svg>
