<svg width="70" height="86" viewBox="0 0 70 86" fill="none" xmlns="http://www.w3.org/2000/svg">
<path d="M26.7401 19.0022C26.7401 23.6293 30.491 27.3802 35.1181 27.3802C39.7451 27.3802 43.4961 23.6293 43.4961 19.0022C43.4961 17.3176 42.6652 14.9901 41.1932 12.3445C39.7608 9.7702 37.8827 7.17615 36.1484 5.04179C35.601 4.36809 34.6351 4.36809 34.0877 5.04179C32.3534 7.17614 30.4753 9.7702 29.043 12.3445C27.571 14.9901 26.7401 17.3176 26.7401 19.0022Z" fill="#F2EDE1" stroke="#DF6D4A" stroke-width="4.5"/>
<path d="M61.1502 52.171C59.1713 62.4125 48.5632 70.6507 35.2662 70.6507C21.9692 70.6507 11.3611 62.4125 9.3822 52.171C9.32138 51.8563 9.40686 51.5812 9.63513 51.3389C9.88326 51.0756 10.2967 50.871 10.793 50.871H59.7395C60.2357 50.871 60.6492 51.0755 60.8973 51.3389C61.1256 51.5812 61.211 51.8563 61.1502 52.171Z" stroke="#DF6D4A" stroke-width="4.5" stroke-linecap="round" stroke-linejoin="round"/>
<path d="M35.2676 83.0943L35.2676 31.2277" stroke="#DF6D4A" stroke-width="4.5" stroke-linecap="round"/>
<path d="M18.859 32.1294C20.1874 36.5617 24.8573 39.0779 29.2896 37.7495C33.7219 36.4211 36.2381 31.7512 34.9097 27.3189C34.426 25.7052 32.9619 23.7142 30.7923 21.6026C28.6812 19.5479 26.1375 17.6022 23.8634 16.0556C23.1456 15.5674 22.2204 15.8447 21.8895 16.6472C20.8409 19.1896 19.7866 22.2137 19.1536 25.0908C18.5031 28.0476 18.3754 30.5157 18.859 32.1294Z" fill="#F2EDE1" stroke="#DF6D4A" stroke-width="4.5"/>
<path d="M51.3783 32.1294C50.0499 36.5617 45.38 39.0779 40.9477 37.7495C36.5154 36.4211 33.9993 31.7512 35.3276 27.3189C35.8113 25.7052 37.2754 23.7142 39.445 21.6026C41.5561 19.5479 44.0998 17.6022 46.3739 16.0556C47.0917 15.5674 48.0169 15.8447 48.3478 16.6472C49.3964 19.1896 50.4507 22.2137 51.0837 25.0908C51.7342 28.0476 51.8619 30.5157 51.3783 32.1294Z" fill="#F2EDE1" stroke="#DF6D4A" stroke-width="4.5"/>
<path d="M58.6066 45.859C56.3745 50.4395 50.8518 52.3434 46.2713 50.1113C41.6908 47.8792 39.7869 42.3565 42.019 37.776C42.8531 36.0643 44.8515 34.1386 47.6079 32.233C50.2941 30.3758 53.4209 28.7257 56.1381 27.4787C56.935 27.1129 57.8129 27.5407 58.016 28.3938C58.7083 31.3022 59.3354 34.7816 59.5281 38.0416C59.7259 41.3867 59.4407 44.1473 58.6066 45.859Z" fill="#F2EDE1" stroke="#DF6D4A" stroke-width="4.5"/>
<path d="M11.6297 45.859C13.8618 50.4395 19.3845 52.3434 23.965 50.1113C28.5456 47.8792 30.4494 42.3565 28.2173 37.776C27.3832 36.0643 25.3848 34.1386 22.6285 32.233C19.9422 30.3758 16.8155 28.7257 14.0982 27.4787C13.3013 27.1129 12.4234 27.5407 12.2203 28.3938C11.528 31.3022 10.9009 34.7816 10.7082 38.0416C10.5105 41.3867 10.7956 44.1473 11.6297 45.859Z" fill="#F2EDE1" stroke="#DF6D4A" stroke-width="4.5"/>
<path d="M46.5271 56.6132C46.5271 64.5156 41.155 70.2721 35.267 70.2721C29.3789 70.2721 24.0068 64.5156 24.0068 56.6132C24.0068 53.5849 25.2943 49.6544 27.3077 45.4937C29.2912 41.3947 31.8523 37.3265 34.1239 34.1034C34.7002 33.2857 35.8338 33.2857 36.4101 34.1034C38.6816 37.3265 41.2427 41.3947 43.2262 45.4937C45.2397 49.6544 46.5271 53.5849 46.5271 56.6132Z" fill="#F2EDE1" stroke="#DF6D4A" stroke-width="4.5"/>
</svg>
