<svg width="74" height="59" viewBox="0 0 74 59" fill="none" xmlns="http://www.w3.org/2000/svg">
<path fill-rule="evenodd" clip-rule="evenodd" d="M32.6163 55.6182C28.6581 53.8763 26.5924 51.2713 26.0903 49.2446C25.6166 47.3327 27.7836 44.9008 30.3352 46.4105C36.1664 49.8605 37.9651 46.1011 40.5939 48.3136C43.1541 50.4682 43.8777 52.5409 42.2354 53.4974C40.4261 54.5512 36.6388 57.3885 32.6163 55.6182Z" stroke="#DF6D4A" stroke-width="4.5"/>
<path fill-rule="evenodd" clip-rule="evenodd" d="M65.3951 48.1753C63.7593 52.1785 61.2102 54.3128 59.1976 54.8688C57.299 55.3932 54.8103 53.2918 56.2514 50.7009C59.5449 44.7798 55.7389 43.0819 57.8805 40.3951C59.9662 37.7784 62.0189 36.9999 63.0188 38.6161C64.1204 40.3967 67.0576 44.107 65.3951 48.1753Z" stroke="#DF6D4A" stroke-width="4.5"/>
<path fill-rule="evenodd" clip-rule="evenodd" d="M60.9787 28.8657C57.0679 27.0198 55.0718 24.3611 54.6234 22.3218C54.2004 20.398 56.4309 18.0243 58.9417 19.6008C64.6797 23.2038 66.5771 19.4933 69.1466 21.7744C71.6489 23.996 72.3174 26.0871 70.6505 26.9999C68.8139 28.0055 64.953 30.7416 60.9787 28.8657Z" stroke="#DF6D4A" stroke-width="4.5"/>
<path fill-rule="evenodd" clip-rule="evenodd" d="M47.8269 15.2319C48.394 19.5191 47.2407 22.6373 45.7695 24.1189C44.3816 25.5167 41.1781 24.9278 41.143 21.9633C41.0628 15.1884 36.9161 15.6037 37.4415 12.2082C37.9531 8.90135 39.3486 7.20657 41.0189 8.11322C42.8591 9.11209 47.2506 10.875 47.8269 15.2319Z" stroke="#DF6D4A" stroke-width="4.5"/>
<path fill-rule="evenodd" clip-rule="evenodd" d="M20.2168 4.95795C23.9957 2.85513 27.3195 2.78197 29.2381 3.60579C31.048 4.38296 31.6776 7.57876 28.9334 8.70072C22.6619 11.2648 24.5719 14.9688 21.2209 15.7279C17.9574 16.4672 15.8684 15.7921 16.0978 13.9055C16.3506 11.827 16.3765 7.09493 20.2168 4.95795Z" stroke="#DF6D4A" stroke-width="4.5"/>
<path fill-rule="evenodd" clip-rule="evenodd" d="M24.8958 30.6774C23.984 26.45 24.8816 23.2489 26.2282 21.6532C27.4986 20.1478 30.7393 20.4758 31.0138 23.4278C31.6412 30.1741 35.7409 29.425 35.4916 32.8519C35.2489 36.1893 33.995 37.9913 32.2569 37.2226C30.342 36.3757 25.8223 34.9734 24.8958 30.6774Z" stroke="#DF6D4A" stroke-width="4.5"/>
<path fill-rule="evenodd" clip-rule="evenodd" d="M10.5098 38.3879C11.6875 34.2268 13.9817 31.8206 15.9195 31.043C17.7475 30.3094 20.4557 32.1192 19.3135 34.855C16.7033 41.1074 20.6753 42.3688 18.8478 45.2784C17.0679 48.112 15.1153 49.1153 13.9408 47.6212C12.6469 45.9751 9.31304 42.6167 10.5098 38.3879Z" stroke="#DF6D4A" stroke-width="4.5"/>
<path fill-rule="evenodd" clip-rule="evenodd" d="M9.12444 17.3434C11.3386 17.4636 12.925 19.2772 13.5694 21.399C14.1713 23.3807 13.6479 25.5464 11.9945 26.7936C10.2455 28.113 7.88715 28.2694 6.05577 27.0669C3.89916 25.6509 2.11989 23.28 2.89635 20.8196C3.68743 18.313 6.49978 17.2009 9.12444 17.3434Z" stroke="#DF6D4A" stroke-width="4.5"/>
<path fill-rule="evenodd" clip-rule="evenodd" d="M41.2685 38.117C40.3335 36.1063 41.1882 33.8534 42.7578 32.2871C44.2237 30.8241 46.3812 30.2677 48.2594 31.1405C50.2462 32.0638 51.4932 34.0716 51.293 36.2533C51.0573 38.8225 49.8014 41.5076 47.2649 41.9791C44.6807 42.4596 42.3769 40.5004 41.2685 38.117Z" stroke="#DF6D4A" stroke-width="4.5"/>
<path fill-rule="evenodd" clip-rule="evenodd" d="M61.9496 2.59427C64.1471 2.29743 66.0453 3.78167 67.0758 5.74511C68.0383 7.57888 67.9301 9.80433 66.5397 11.3393C65.0688 12.963 62.7816 13.5586 60.7573 12.7206C58.3736 11.7337 56.1816 9.7382 56.4832 7.17596C56.7906 4.56547 59.3448 2.94613 61.9496 2.59427Z" stroke="#DF6D4A" stroke-width="4.5"/>
</svg>
