<svg width="60" height="54" viewBox="0 0 60 54" fill="none" xmlns="http://www.w3.org/2000/svg">
<path d="M28.3303 9.68744L30.2173 12.6022L32.1067 9.68904C36.5757 2.79886 42.6901 1.54309 47.5764 3.42012C52.6055 5.35198 56.7964 10.7748 56.7964 18.2425C56.7964 20.6965 55.4759 23.8237 53.0375 27.3874C50.6451 30.8838 47.3883 34.499 43.9885 37.8675C40.5984 41.2264 37.1207 44.2867 34.3191 46.6786C33.3128 47.5378 32.4014 48.3043 31.6084 48.9712C31.2953 49.2346 31.0006 49.4824 30.7258 49.7142C30.5456 49.8664 30.3703 50.0146 30.2019 50.1576C30.0172 50.0058 29.8248 49.8489 29.6273 49.6883C29.228 49.3634 28.7941 49.0129 28.3253 48.6343C27.5942 48.0436 26.7783 47.3845 25.8762 46.6474C22.9457 44.253 19.2974 41.1908 15.7366 37.8297C12.1653 34.4586 8.74083 30.8414 6.22468 27.344C3.65533 23.7725 2.28125 20.6616 2.28125 18.2425C2.28125 10.7981 6.73221 5.34109 12.1451 3.38851C17.4529 1.47382 23.9035 2.84963 28.3303 9.68744Z" stroke="#DF6D4A" stroke-width="4.5" stroke-linecap="round"/>
</svg>
