<svg width="18" height="18" viewBox="0 0 18 18" fill="none" xmlns="http://www.w3.org/2000/svg">
<path d="M1.32617 2.95009C1.32617 1.90471 2.13123 1.03569 3.17356 0.955918L8.65926 0.536094C8.76085 0.528319 8.86289 0.528319 8.96449 0.536094L14.4502 0.955918C15.4925 1.03569 16.2976 1.90471 16.2976 2.95009V14.1395C16.2976 15.1849 15.4925 16.0539 14.4502 16.1337L8.96449 16.5535C8.86289 16.5613 8.76085 16.5613 8.65926 16.5535L3.17355 16.1337C2.13123 16.0539 1.32617 15.1849 1.32617 14.1395V2.95009Z" fill="#503D3C"/>
<path fill-rule="evenodd" clip-rule="evenodd" d="M9.00227 0.200195C6.62718 0.200195 6.32987 0.20964 5.39713 0.251195C4.46633 0.292751 3.83041 0.436306 3.27417 0.646445C2.69072 0.85986 2.16219 1.19441 1.72542 1.62678C1.28071 2.0514 0.936547 2.56514 0.716897 3.13222C0.500714 3.67292 0.352544 4.29106 0.310279 5.19631C0.268014 6.1025 0.257812 6.39103 0.257812 8.7002C0.257812 11.0094 0.267529 11.2979 0.310279 12.2046C0.35303 13.1093 0.500714 13.7275 0.716897 14.2682C0.936449 14.8353 1.28063 15.3491 1.72542 15.7736C2.21123 16.2458 2.69946 16.5367 3.27417 16.7539C3.83041 16.9641 4.46633 17.1081 5.39713 17.1492C6.32987 17.1903 6.62718 17.2002 9.00227 17.2002C11.3774 17.2002 11.6747 17.1908 12.6074 17.1492C13.5382 17.1076 14.1741 16.9641 14.7304 16.7539C15.3138 16.5405 15.8424 16.206 16.2791 15.7736C16.7649 15.3014 17.0642 14.8268 17.2877 14.2682C17.5038 13.7275 17.652 13.1093 17.6943 12.2046C17.7365 11.2979 17.7467 11.0089 17.7467 8.7002C17.7467 6.3915 17.737 6.1025 17.6943 5.19583C17.6515 4.29106 17.5038 3.67292 17.2877 3.13222C17.0681 2.5651 16.7239 2.05134 16.2791 1.62678C15.8423 1.1945 15.3138 0.859955 14.7304 0.646445C14.1741 0.436306 13.5382 0.292279 12.6069 0.251195C11.6747 0.210112 11.3779 0.200195 9.00227 0.200195ZM9.00227 1.73161C11.337 1.73161 11.614 1.74058 12.536 1.7812C13.3886 1.81897 13.8516 1.95733 14.1596 2.07397C14.5676 2.22792 14.8591 2.41256 15.1652 2.70958C15.4712 3.00708 15.6607 3.29042 15.8191 3.68708C15.9391 3.98647 16.0814 4.4365 16.1203 5.26525C16.162 6.16153 16.1713 6.4307 16.1713 8.7002C16.1713 10.9697 16.162 11.2389 16.1203 12.1351C16.0814 12.9639 15.9391 13.4139 15.8191 13.7133C15.679 14.0825 15.4556 14.4166 15.1652 14.6908C14.8591 14.9883 14.5676 15.1725 14.1596 15.3264C13.8516 15.4431 13.3886 15.5814 12.536 15.6192C11.614 15.6598 11.3375 15.6688 9.00227 15.6688C6.66702 15.6688 6.3906 15.6598 5.46854 15.6192C4.61596 15.5814 4.15298 15.4431 3.84499 15.3264C3.46513 15.1903 3.1215 14.9731 2.83937 14.6908C2.54901 14.4166 2.32557 14.0825 2.18548 13.7133C2.06549 13.4139 1.92315 12.9639 1.88428 12.1351C1.8425 11.2389 1.83327 10.9697 1.83327 8.7002C1.83327 6.4307 1.8425 6.16153 1.88428 5.26525C1.92315 4.4365 2.06549 3.98647 2.18548 3.68708C2.34385 3.29042 2.5338 3.00708 2.83937 2.70958C3.14543 2.41208 3.43691 2.22792 3.84499 2.07397C4.15298 1.95733 4.61596 1.81897 5.46854 1.7812C6.3906 1.74058 6.6675 1.73161 9.00227 1.73161Z" fill="#503D3C"/>
<path fill-rule="evenodd" clip-rule="evenodd" d="M9.00048 11.5356C8.61732 11.5356 8.23792 11.4623 7.88392 11.3197C7.52993 11.1772 7.20828 10.9683 6.93735 10.7049C6.66641 10.4416 6.45149 10.1289 6.30487 9.78479C6.15824 9.44069 6.08277 9.07188 6.08277 8.69942C6.08277 8.32697 6.15824 7.95816 6.30487 7.61405C6.45149 7.26995 6.66641 6.95729 6.93735 6.69392C7.20828 6.43056 7.52993 6.22164 7.88392 6.07911C8.23792 5.93658 8.61732 5.86322 9.00048 5.86322C9.77431 5.86322 10.5164 6.16203 11.0636 6.69392C11.6108 7.22581 11.9182 7.94721 11.9182 8.69942C11.9182 9.45163 11.6108 10.173 11.0636 10.7049C10.5164 11.2368 9.77431 11.5356 9.00048 11.5356ZM9.00048 4.33036C7.80844 4.33036 6.66521 4.79067 5.8223 5.61003C4.9794 6.42939 4.50586 7.54068 4.50586 8.69942C4.50586 9.85817 4.9794 10.9695 5.8223 11.7888C6.66521 12.6082 7.80844 13.0685 9.00048 13.0685C10.1925 13.0685 11.3358 12.6082 12.1787 11.7888C13.0216 10.9695 13.4951 9.85817 13.4951 8.69942C13.4951 7.54068 13.0216 6.42939 12.1787 5.61003C11.3358 4.79067 10.1925 4.33036 9.00048 4.33036ZM14.8029 4.25103C14.8029 4.52493 14.6909 4.78762 14.4917 4.9813C14.2925 5.17498 14.0222 5.28379 13.7404 5.28379C13.4587 5.28379 13.1884 5.17498 12.9892 4.9813C12.7899 4.78762 12.678 4.52493 12.678 4.25103C12.678 3.97712 12.7899 3.71443 12.9892 3.52075C13.1884 3.32707 13.4587 3.21826 13.7404 3.21826C14.0222 3.21826 14.2925 3.32707 14.4917 3.52075C14.6909 3.71443 14.8029 3.97712 14.8029 4.25103Z" fill="#FFD9A8"/>
</svg>
