<svg width="29" height="16" viewBox="0 0 29 16" fill="none" xmlns="http://www.w3.org/2000/svg">
<path d="M28.045 14.1121C28.0118 14.0435 27.9807 13.9866 27.9519 13.941C27.475 13.1194 26.5637 12.1111 25.2186 10.9156L25.1902 10.8882L25.1759 10.8748L25.1615 10.861H25.1471C24.5366 10.3043 24.15 9.93004 23.9881 9.73841C23.6919 9.37336 23.6255 9.00385 23.7874 8.62945C23.9018 8.34658 24.3314 7.7492 25.0754 6.83648C25.4667 6.35277 25.7766 5.96509 26.0055 5.67302C27.6561 3.57401 28.3717 2.23272 28.1522 1.64862L28.0669 1.51212C28.0096 1.42994 27.8617 1.35477 27.6235 1.28621C27.3847 1.21779 27.0795 1.20648 26.7073 1.25207L22.586 1.2793C22.5192 1.25667 22.4239 1.25878 22.2997 1.28621C22.1756 1.31363 22.1136 1.32739 22.1136 1.32739L22.0418 1.36167L21.9849 1.40285C21.9372 1.43009 21.8847 1.47798 21.8274 1.54645C21.7704 1.61467 21.7228 1.69474 21.6847 1.78598C21.236 2.89018 20.7258 3.91682 20.1532 4.86582C19.8002 5.43171 19.476 5.92213 19.1799 6.33738C18.8843 6.75248 18.6362 7.05832 18.436 7.25436C18.2355 7.4506 18.0546 7.60781 17.8921 7.72657C17.7298 7.84537 17.606 7.89557 17.5202 7.87721C17.4342 7.85884 17.3533 7.84062 17.2766 7.82241C17.1432 7.74023 17.0358 7.62847 16.9548 7.48704C16.8735 7.3456 16.8188 7.16758 16.7902 6.95313C16.7617 6.73853 16.7449 6.55394 16.7401 6.39875C16.7356 6.24374 16.7377 6.02449 16.7473 5.74162C16.7573 5.45861 16.7617 5.26712 16.7617 5.16672C16.7617 4.81989 16.7688 4.44348 16.783 4.03739C16.7974 3.63131 16.8091 3.30955 16.8189 3.07252C16.8286 2.83524 16.8331 2.5842 16.8331 2.31955C16.8331 2.0549 16.8163 1.84735 16.783 1.69671C16.7501 1.54626 16.6996 1.40022 16.6331 1.25864C16.5662 1.1172 16.4682 1.00779 16.3397 0.930124C16.211 0.85255 16.0509 0.79099 15.8604 0.745251C15.3547 0.635794 14.7107 0.576583 13.9282 0.567377C12.1538 0.549159 11.0136 0.658759 10.508 0.896035C10.3077 0.996287 10.1264 1.13326 9.96426 1.30653C9.79249 1.50737 9.76853 1.61697 9.89253 1.635C10.465 1.71703 10.8703 1.91327 11.1089 2.22352L11.1948 2.38792C11.2617 2.50653 11.3285 2.71653 11.3953 3.01762C11.462 3.31871 11.5051 3.65178 11.524 4.01663C11.5716 4.68292 11.5716 5.25326 11.524 5.72772C11.4762 6.20237 11.4311 6.57187 11.3881 6.83653C11.345 7.10118 11.2807 7.31563 11.1948 7.47984C11.1089 7.6441 11.0517 7.7445 11.023 7.78093C10.9944 7.81737 10.9705 7.84034 10.9516 7.84935C10.8276 7.8948 10.6986 7.91796 10.5651 7.91796C10.4315 7.91796 10.2694 7.854 10.0786 7.72618C9.88787 7.59836 9.68993 7.42279 9.48478 7.19918C9.27962 6.97552 9.04825 6.66297 8.79057 6.26148C8.53308 5.86 8.26592 5.38549 7.98924 4.83797L7.76033 4.44089C7.61722 4.18545 7.42174 3.81349 7.17368 3.32537C6.92547 2.83706 6.70608 2.36471 6.51536 1.90843C6.43912 1.71679 6.32459 1.5709 6.17196 1.4705L6.10033 1.42932C6.05272 1.39288 5.97628 1.35419 5.87142 1.31296C5.76641 1.27177 5.65684 1.24224 5.54226 1.22407L1.62114 1.2513C1.22045 1.2513 0.948579 1.33813 0.805426 1.51154L0.748134 1.59358C0.719514 1.63927 0.705078 1.71224 0.705078 1.81268C0.705078 1.91308 0.733699 2.0363 0.79099 2.18219C1.3634 3.46901 1.98589 4.71005 2.65845 5.9055C3.331 7.10094 3.91544 8.0639 4.41142 8.79352C4.90749 9.52366 5.41314 10.2128 5.92836 10.8605C6.44358 11.5085 6.78462 11.9237 6.95148 12.1061C7.11854 12.2889 7.24977 12.4255 7.34515 12.5168L7.70298 12.8452C7.93195 13.0643 8.26818 13.3267 8.71182 13.6323C9.15557 13.9381 9.64683 14.2392 10.1859 14.536C10.725 14.8324 11.3522 15.0742 12.0678 15.2613C12.7833 15.4485 13.4797 15.5236 14.1571 15.4874H15.8029C16.1367 15.4598 16.3896 15.3594 16.5614 15.1861L16.6184 15.1175C16.6567 15.0631 16.6925 14.9784 16.7256 14.8646C16.7591 14.7505 16.7757 14.6248 16.7757 14.4882C16.7659 14.0958 16.7972 13.7422 16.8685 13.4274C16.9399 13.1127 17.0212 12.8754 17.1121 12.7157C17.203 12.556 17.3055 12.4213 17.4196 12.3121C17.534 12.2026 17.6155 12.1363 17.6633 12.1135C17.7109 12.0905 17.7488 12.0749 17.7774 12.0656C18.0064 11.9926 18.2759 12.0633 18.5862 12.2779C18.8963 12.4924 19.1872 12.7572 19.4593 13.0719C19.7312 13.3869 20.0579 13.7403 20.4394 14.1326C20.8212 14.5251 21.1551 14.8168 21.4412 15.0087L21.7273 15.173C21.9183 15.2826 22.1664 15.383 22.4718 15.4742C22.7766 15.5654 23.0436 15.5882 23.2729 15.5426L26.9363 15.488C27.2987 15.488 27.5806 15.4306 27.7806 15.3167C27.981 15.2027 28.1 15.077 28.1384 14.9403C28.1767 14.8035 28.1788 14.6482 28.1457 14.4747C28.1118 14.3016 28.0783 14.1805 28.045 14.1121Z" fill="#503D3C"/>
</svg>
